<svg width="606" height="173" viewBox="0 0 606 173" fill="none" xmlns="http://www.w3.org/2000/svg">
<mask id="mask0_34_9074" style="mask-type:alpha" maskUnits="userSpaceOnUse" x="2" y="4" width="172" height="168">
<path fill-rule="evenodd" clip-rule="evenodd" d="M160.677 8.78462C160.677 7.58344 161.65 6.60969 162.852 6.60969C164.053 6.60969 165.026 7.58344 165.026 8.78462C165.026 9.98581 164.053 10.9596 162.852 10.9596C161.65 10.9596 160.677 9.9858 160.677 8.78462ZM162.852 4.40723C160.434 4.40723 158.474 6.36705 158.474 8.78462C158.474 10.8196 159.863 12.5302 161.744 13.0207L161.731 15.0858C161.33 15.3077 161.001 15.6449 160.791 16.0527H152.98C152.766 15.6373 152.429 15.2952 152.018 15.0735L152.031 13.0182C153.908 12.5243 155.291 10.8161 155.291 8.78462C155.291 6.36705 153.332 4.40723 150.914 4.40723C148.496 4.40723 146.537 6.36706 146.537 8.78462C146.537 10.8275 147.936 12.5436 149.829 13.0264L149.815 15.0767C149.407 15.2984 149.072 15.6393 148.859 16.0527H141.037C140.824 15.6399 140.49 15.2994 140.083 15.0777L140.098 13.017C141.973 12.5216 143.354 10.8145 143.354 8.78462C143.354 6.36705 141.394 4.40723 138.977 4.40723C136.559 4.40723 134.599 6.36705 134.599 8.78462C134.599 10.8291 136.001 12.5463 137.896 13.0275L137.88 15.0725C137.468 15.2941 137.131 15.6367 136.916 16.0527H129.128C128.742 15.3071 127.964 14.7973 127.067 14.7973C126.185 14.7973 125.419 15.2895 125.027 16.0142H104.337H101.348H45.1407H44.6973L44.3776 16.3215L33.7121 26.574L33.3741 26.8989V27.3679V52.531H35.5765V27.8368L45.5842 18.2166H101.348H104.337H125.027C125.244 18.6188 125.577 18.9495 125.981 19.164L125.997 21.1952C124.085 21.6649 122.668 23.39 122.668 25.4463C122.668 27.8638 124.627 29.8237 127.045 29.8237C129.463 29.8237 131.422 27.8638 131.422 25.4463C131.422 23.4283 130.057 21.7293 128.2 21.2227L128.184 19.1473C128.561 18.9396 128.874 18.6298 129.086 18.2552H136.958C137.18 18.6483 137.514 18.97 137.916 19.1773L137.93 21.1949C136.018 21.6642 134.599 23.3896 134.599 25.4463C134.599 27.8638 136.559 29.8237 138.977 29.8237C141.394 29.8237 143.354 27.8638 143.354 25.4463C143.354 23.4287 141.989 21.73 140.132 21.223L140.119 19.1333C140.485 18.9257 140.789 18.6214 140.996 18.2552H148.901C149.118 18.6393 149.441 18.9552 149.832 19.1629L149.845 21.1839C147.955 21.6688 146.559 23.3834 146.559 25.4242C146.559 27.8418 148.519 29.8016 150.936 29.8016C153.354 29.8016 155.313 27.8418 155.313 25.4242C155.313 23.3906 153.927 21.681 152.047 21.1891L152.034 19.1485C152.412 18.9408 152.726 18.6305 152.939 18.2552H160.832C161.23 18.9587 161.985 19.4335 162.851 19.4335C164.132 19.4335 165.169 18.3957 165.169 17.1154C165.169 16.2259 164.668 15.4534 163.933 15.0647L163.946 13.024C165.834 12.5378 167.229 10.8241 167.229 8.78462C167.229 6.36706 165.269 4.40723 162.852 4.40723ZM24.377 19.329C24.7143 19.329 25.0348 19.401 25.3239 19.5305L37.5118 7.98518L37.8303 7.68342H38.2691H103.376C103.864 5.7989 105.576 4.40723 107.614 4.40723C110.031 4.40723 111.991 6.36705 111.991 8.78462C111.991 11.2022 110.031 13.162 107.614 13.162C105.576 13.162 103.864 11.7704 103.376 9.88588H38.7079L26.668 21.2911C26.6858 21.4071 26.6951 21.526 26.6951 21.647C26.6951 22.3945 26.3414 23.0593 25.7921 23.4832V33.5047C26.3414 33.9286 26.6951 34.5934 26.6951 35.3408C26.6951 36.0883 26.3414 36.7531 25.7921 37.177V52.5311H23.5897V37.5218C23.4135 37.4582 23.2473 37.3738 23.0939 37.2717L16.4758 43.8857V46.8343C18.3602 47.3226 19.7518 49.0348 19.7518 51.0719C19.7518 53.4895 17.792 55.4493 15.3744 55.4493C12.9569 55.4493 10.997 53.4895 10.997 51.0719C10.997 49.0347 12.3888 47.3225 14.2733 46.8342V43.4293V42.973L14.5961 42.6504L22.0639 35.1872C22.1252 34.2505 22.7429 33.4656 23.5897 33.1599V23.9157L7.68034 39.0473L7.48315 83.7394C9.46803 84.1551 10.9586 85.9154 10.9586 88.0238C10.9586 90.4413 8.99882 92.4012 6.58125 92.4012C4.16368 92.4012 2.20386 90.4413 2.20386 88.0238C2.20386 86.0592 3.49797 84.397 5.28021 83.843L5.47997 38.5681L5.48204 38.0986L5.82225 37.775L22.1396 22.2554C22.087 22.0615 22.0589 21.8576 22.0589 21.647C22.0589 20.3668 23.0968 19.329 24.377 19.329ZM154.565 41.4197C154.565 38.4091 157.005 35.9686 160.016 35.9686C163.026 35.9686 165.467 38.4091 165.467 41.4197C165.467 44.4302 163.026 46.8708 160.016 46.8708C157.005 46.8708 154.565 44.4302 154.565 41.4197ZM152.444 42.5437L84.9454 42.5976L79.3829 47.7179L79.3781 51.0735L77.1756 51.0704L77.1811 47.2326L77.1818 46.7505L77.5365 46.4239L83.7695 40.6865L84.0853 40.3959L84.5144 40.3955L152.438 40.3413C152.962 36.625 156.155 33.7661 160.016 33.7661C164.243 33.7661 167.669 37.1927 167.669 41.4197C167.669 45.6466 164.243 49.0732 160.016 49.0732C156.171 49.0732 152.988 46.2378 152.444 42.5437ZM121.88 124.786L121.875 127.537L100.216 147.846C99.9854 147.769 99.7381 147.727 99.4811 147.727C98.5043 147.727 97.6686 148.331 97.3273 149.186H49.9016C49.4133 147.302 47.7011 145.91 45.6639 145.91C43.2463 145.91 41.2865 147.87 41.2865 150.287C41.2865 152.305 42.652 154.004 44.5094 154.511L44.5253 156.586C44.1462 156.795 43.8318 157.107 43.6198 157.484H35.7597C35.5369 157.088 35.201 156.763 34.7958 156.555L34.7803 154.54C36.6944 154.072 38.115 152.346 38.115 150.287C38.115 147.87 36.1552 145.91 33.7376 145.91C31.32 145.91 29.3602 147.87 29.3602 150.287C29.3602 152.303 30.723 154.001 32.5775 154.509L32.5936 156.602C32.2268 156.81 31.9224 157.116 31.7156 157.484H23.8168C23.5991 157.097 23.2734 156.778 22.8805 156.57L22.8649 154.549C24.754 154.064 26.15 152.35 26.15 150.309C26.15 147.892 24.1902 145.932 21.7726 145.932C19.3551 145.932 17.3952 147.892 17.3952 150.309C17.3952 152.343 18.7825 154.053 20.6624 154.545L20.6781 156.586C20.299 156.795 19.9846 157.107 19.7726 157.484H11.8795C11.4823 156.777 10.7256 156.3 9.85742 156.3C8.57718 156.3 7.53933 157.338 7.53933 158.618C7.53933 159.509 8.04181 160.282 8.7788 160.671L8.76335 162.709C6.87518 163.195 5.47997 164.909 5.47997 166.949C5.47997 169.367 7.4398 171.326 9.85736 171.326C12.2749 171.326 14.2348 169.367 14.2348 166.949C14.2348 164.914 12.8467 163.204 10.9658 162.713L10.9815 160.646C11.3792 160.425 11.705 160.091 11.9153 159.686H19.7369C19.9513 160.099 20.2859 160.438 20.6943 160.659L20.6787 162.715C18.8017 163.209 17.4173 164.917 17.4173 166.949C17.4173 169.367 19.3771 171.326 21.7947 171.326C24.2122 171.326 26.1721 169.367 26.1721 166.949C26.1721 164.907 24.7732 163.191 22.8813 162.708L22.8968 160.658C23.3045 160.437 23.6385 160.098 23.8526 159.686H31.6798C31.8927 160.096 32.224 160.433 32.6284 160.654L32.615 162.717C30.7413 163.213 29.3602 164.92 29.3602 166.949C29.3602 169.367 31.32 171.326 33.7376 171.326C36.1552 171.326 38.115 169.367 38.115 166.949C38.115 164.904 36.7129 163.187 34.8176 162.706L34.8309 160.663C35.2425 160.442 35.5798 160.101 35.7955 159.686H43.584C43.9703 160.429 44.7469 160.936 45.6419 160.936C46.9221 160.936 47.96 159.898 47.96 158.618C47.96 157.73 47.4608 156.959 46.7277 156.57L46.7121 154.538C48.2699 154.156 49.4999 152.939 49.9016 151.389H97.5918C98.012 151.978 98.7016 152.363 99.4811 152.363C100.261 152.363 100.95 151.978 101.37 151.389H111.217C111.609 152.113 112.376 152.605 113.257 152.605C114.139 152.605 114.906 152.113 115.298 151.389H125.162H125.584L125.898 151.106L141.976 136.653L142.341 136.325L142.341 135.834L142.347 124.789L140.144 124.788L140.139 135.343L124.74 149.186H115.298C115.284 149.162 115.271 149.137 115.257 149.113L132.831 132.854L133.184 132.527L133.184 132.046L133.19 124.789L130.987 124.788L130.982 131.564L113.25 147.969C112.371 147.972 111.608 148.464 111.217 149.186H102.007L123.729 128.818L124.076 128.493L124.077 128.017L124.083 124.79L121.88 124.786ZM155.22 132.163L155.225 124.788L157.428 124.789L157.422 132.63L157.422 133.095L157.088 133.419L129.453 160.245L129.132 160.556H128.686H62.8838C63.3831 161.573 63.6636 162.717 63.6636 163.926C63.6636 165.075 63.4106 166.164 62.9573 167.142H133.268L165.021 135.377L165.026 124.788L167.229 124.789L167.223 135.834L167.223 136.29L166.901 136.612L134.503 169.022L134.18 169.344H133.724H61.4156C60.0311 170.726 58.1203 171.58 56.01 171.58C51.7831 171.58 48.3564 168.153 48.3564 163.926C48.3564 159.699 51.7831 156.273 56.01 156.273C58.0407 156.273 59.8867 157.063 61.2567 158.354H128.239L155.22 132.163ZM61.4611 163.926C61.4611 165.129 61.0717 166.24 60.4121 167.142H60.4039V167.153C59.4116 168.502 57.8131 169.377 56.01 169.377C52.9994 169.377 50.5589 166.937 50.5589 163.926C50.5589 160.915 52.9994 158.475 56.01 158.475C59.0206 158.475 61.4611 160.915 61.4611 163.926ZM101.888 129.668L101.893 124.787L104.095 124.789L104.09 130.152L104.089 130.635L103.734 130.962L97.5014 136.699L97.1856 136.99L96.7564 136.99L20.7086 137.044C20.1749 140.75 16.9868 143.597 13.1335 143.597C8.90659 143.597 5.47997 140.171 5.47997 135.944C5.47997 131.717 8.90659 128.29 13.1335 128.29C16.9863 128.29 20.1741 131.137 20.7083 134.842L96.3256 134.788L101.888 129.668ZM13.1335 130.493C10.123 130.493 7.68243 132.933 7.68243 135.944C7.68243 138.954 10.123 141.395 13.1335 141.395C16.1441 141.395 18.5846 138.954 18.5846 135.944C18.5846 132.933 16.1441 130.493 13.1335 130.493ZM78.3651 69.7653C82.6042 69.7653 86.0406 66.3288 86.0406 62.0897C86.0406 57.8506 82.6042 54.4142 78.3651 54.4142C74.1259 54.4142 70.6895 57.8506 70.6895 62.0897C70.6895 66.3288 74.1259 69.7653 78.3651 69.7653ZM7.68243 166.949C7.68243 165.748 8.65619 164.774 9.85736 164.774C11.0585 164.774 12.0323 165.748 12.0323 166.949C12.0323 168.15 11.0585 169.124 9.85736 169.124C8.65618 169.124 7.68243 168.15 7.68243 166.949ZM21.7947 164.774C20.5935 164.774 19.6197 165.748 19.6197 166.949C19.6197 168.15 20.5935 169.124 21.7947 169.124C22.9959 169.124 23.9696 168.15 23.9696 166.949C23.9696 165.748 22.9959 164.774 21.7947 164.774ZM31.5627 166.949C31.5627 165.748 32.5364 164.774 33.7376 164.774C34.9388 164.774 35.9125 165.748 35.9125 166.949C35.9125 168.15 34.9388 169.124 33.7376 169.124C32.5364 169.124 31.5627 168.15 31.5627 166.949ZM21.7726 148.134C20.5714 148.134 19.5977 149.108 19.5977 150.309C19.5977 151.511 20.5714 152.484 21.7726 152.484C22.9738 152.484 23.9476 151.511 23.9476 150.309C23.9476 149.108 22.9738 148.134 21.7726 148.134ZM10.017 145.932C7.59943 145.932 5.6396 147.892 5.6396 150.309C5.6396 152.727 7.59943 154.687 10.017 154.687C12.4346 154.687 14.3944 152.727 14.3944 150.309C14.3944 147.892 12.4346 145.932 10.017 145.932ZM6.58125 85.8488C5.38007 85.8488 4.40632 86.8226 4.40632 88.0238C4.40632 89.225 5.38007 90.1987 6.58125 90.1987C7.78243 90.1987 8.75618 89.225 8.75618 88.0238C8.75618 86.8226 7.78243 85.8488 6.58125 85.8488ZM33.7376 148.112C32.5364 148.112 31.5627 149.086 31.5627 150.287C31.5627 151.489 32.5364 152.462 33.7376 152.462C34.9388 152.462 35.9125 151.489 35.9125 150.287C35.9125 149.086 34.9388 148.112 33.7376 148.112ZM43.4889 150.287C43.4889 149.086 44.4627 148.112 45.6639 148.112C46.8651 148.112 47.8388 149.086 47.8388 150.287C47.8388 151.489 46.8651 152.462 45.6639 152.462C44.4627 152.462 43.4889 151.489 43.4889 150.287ZM150.914 6.60969C149.713 6.60969 148.739 7.58344 148.739 8.78462C148.739 9.98581 149.713 10.9596 150.914 10.9596C152.115 10.9596 153.089 9.9858 153.089 8.78462C153.089 7.58344 152.115 6.60969 150.914 6.60969ZM136.802 8.78462C136.802 7.58344 137.776 6.60969 138.977 6.60969C140.178 6.60969 141.152 7.58344 141.152 8.78462C141.152 9.9858 140.178 10.9596 138.977 10.9596C137.776 10.9596 136.802 9.9858 136.802 8.78462ZM150.936 23.2493C149.735 23.2493 148.761 24.223 148.761 25.4242C148.761 26.6254 149.735 27.5991 150.936 27.5991C152.137 27.5991 153.111 26.6254 153.111 25.4242C153.111 24.223 152.137 23.2493 150.936 23.2493ZM136.802 25.4463C136.802 24.2451 137.776 23.2713 138.977 23.2713C140.178 23.2713 141.152 24.2451 141.152 25.4463C141.152 26.6474 140.178 27.6212 138.977 27.6212C137.776 27.6212 136.802 26.6475 136.802 25.4463ZM158.656 25.4463C158.656 23.0287 160.616 21.0689 163.034 21.0689C165.451 21.0689 167.411 23.0287 167.411 25.4463C167.411 27.8638 165.451 29.8237 163.034 29.8237C160.616 29.8237 158.656 27.8638 158.656 25.4463ZM124.87 25.4463C124.87 24.2451 125.844 23.2713 127.045 23.2713C128.246 23.2713 129.22 24.2451 129.22 25.4463C129.22 26.6475 128.246 27.6212 127.045 27.6212C125.844 27.6212 124.87 26.6475 124.87 25.4463ZM107.614 23.2493C106.412 23.2493 105.439 24.223 105.439 25.4242C105.439 26.6254 106.412 27.5991 107.614 27.5991C108.815 27.5991 109.789 26.6254 109.789 25.4242C109.789 24.223 108.815 23.2493 107.614 23.2493ZM52.2381 26.5475H103.382C103.878 28.4208 105.584 29.8016 107.614 29.8016C110.031 29.8016 111.991 27.8418 111.991 25.4242C111.991 23.0066 110.031 21.0468 107.614 21.0468C105.568 21.0468 103.851 22.4493 103.37 24.345H51.7868H51.3355L51.014 24.6617L43.2558 32.3043L42.9274 32.6278V33.0888V52.531H45.1299V33.5498L52.2381 26.5475ZM13.1995 51.0719C13.1995 49.8708 14.1733 48.897 15.3744 48.897C16.5756 48.897 17.5494 49.8708 17.5494 51.0719C17.5494 52.2731 16.5756 53.2469 15.3744 53.2469C14.1733 53.2469 13.1995 52.2731 13.1995 51.0719ZM107.614 6.60969C106.412 6.60969 105.439 7.58344 105.439 8.78462C105.439 9.9858 106.412 10.9596 107.614 10.9596C108.815 10.9596 109.789 9.9858 109.789 8.78462C109.789 7.58344 108.815 6.60969 107.614 6.60969ZM6.37746 121.446L23.6007 55.9173H45.1298L62.3531 121.446H49.6228L46.0658 107.031H22.6647L19.1077 121.446H6.37746ZM25.5664 95.6057H43.1641L35.2077 63.681H33.5228L25.5664 95.6057ZM72.4678 75.0127V121.446H84.262V75.0127H72.4678ZM96.9923 121.446V55.9173H119.925L131.252 113.022H132.937L144.263 55.9173H167.196V121.446H155.214V64.997H153.53L142.297 121.446H121.891L110.659 64.997H108.974V121.446H96.9923ZM68.3162 119.128C68.3162 120.408 67.2784 121.446 65.9981 121.446C64.7179 121.446 63.6801 120.408 63.6801 119.128C63.6801 117.848 64.7179 116.81 65.9981 116.81C67.2784 116.81 68.3162 117.848 68.3162 119.128ZM88.5623 121.446C89.8425 121.446 90.8804 120.408 90.8804 119.128C90.8804 117.848 89.8425 116.81 88.5623 116.81C87.2821 116.81 86.2442 117.848 86.2442 119.128C86.2442 120.408 87.2821 121.446 88.5623 121.446ZM173.627 119.128C173.627 120.408 172.589 121.446 171.309 121.446C170.029 121.446 168.991 120.408 168.991 119.128C168.991 117.848 170.029 116.81 171.309 116.81C172.589 116.81 173.627 117.848 173.627 119.128Z" fill="white"/>
</mask>
<g mask="url(#mask0_34_9074)">
<circle cx="91.9541" cy="93.6069" r="140.407" fill="#31DBA5"/>
<g filter="url(#filter0_f_34_9074)">
<circle cx="42.5446" cy="168.598" r="101.864" fill="#31DBA5"/>
</g>
<g filter="url(#filter1_f_34_9074)">
<circle cx="11.6335" cy="-16.0039" r="80.3899" fill="#1C4C8A"/>
</g>
<g filter="url(#filter2_f_34_9074)">
<circle cx="130.497" cy="15.9701" r="80.3899" fill="#31DBA5"/>
</g>
<g filter="url(#filter3_f_34_9074)">
<circle cx="206.443" cy="174.087" r="80.3899" fill="#1C4C8A"/>
</g>
</g>
<path d="M205.983 79.2104L216.969 37.4258H230.701L241.686 79.2104H233.566L231.3 70.016H216.375L214.109 79.2104H205.983ZM218.22 62.7372H229.444L224.372 42.3791H223.298L218.226 62.7372H218.22Z" fill="#F9F9F9"/>
<path d="M250.692 46.1397C249.338 46.1397 248.194 45.7026 247.26 44.8285C246.327 43.9544 245.857 42.7997 245.857 41.3645C245.857 39.9292 246.327 38.7799 247.26 37.9004C248.194 37.0263 249.338 36.5892 250.692 36.5892C252.046 36.5892 253.239 37.0263 254.156 37.9004C255.073 38.7745 255.527 39.9292 255.527 41.3645C255.527 42.7997 255.068 43.9544 254.156 44.8285C253.239 45.7026 252.084 46.1397 250.692 46.1397ZM246.931 79.2102V49.5984H254.453V79.2102H246.931Z" fill="#F9F9F9"/>
<path d="M277.735 79.2104V37.4258H292.363L299.588 73.8416H300.662L307.887 37.4258H322.515V79.2104H314.874V43.2154H313.8L306.635 79.2104H293.62L286.455 43.2154H285.381V79.2104H277.741H277.735Z" fill="#F9F9F9"/>
<path d="M327.522 79.2104L338.507 37.4258H352.24L363.225 79.2104H355.105L352.839 70.016H337.914L335.648 79.2104H327.527H327.522ZM339.759 62.7372H350.982L345.91 42.3791H344.837L339.765 62.7372H339.759Z" fill="#F9F9F9"/>
<path d="M368.233 79.2104V37.4258H386.379C389.006 37.4258 391.294 37.8844 393.242 38.7963C395.19 39.7136 396.706 41.0031 397.78 42.6758C398.853 44.3485 399.393 46.3179 399.393 48.5842V49.3018C399.393 51.8108 398.794 53.8396 397.602 55.3882C396.409 56.9421 394.936 58.0753 393.183 58.7929V59.8666C394.774 59.9476 396.01 60.4926 396.884 61.507C397.758 62.5213 398.195 63.8649 398.195 65.5376V79.205H390.317V66.6707C390.317 65.7156 390.069 64.9386 389.573 64.3451C389.076 63.7462 388.251 63.4494 387.096 63.4494H376.11V79.2104H368.233ZM376.11 56.2893H385.542C387.414 56.2893 388.877 55.7821 389.929 54.7677C390.981 53.7533 391.51 52.4097 391.51 50.7371V50.1381C391.51 48.4655 390.992 47.1219 389.956 46.1075C388.92 45.0931 387.447 44.5859 385.537 44.5859H376.105V56.2839L376.11 56.2893Z" fill="#F9F9F9"/>
<path d="M405.96 79.2104V37.4258H413.837V54.0231H414.911L428.46 37.4258H438.55L421.122 58.0213L439.149 79.2157H428.762L414.911 62.2623H413.837V79.2157H405.96V79.2104Z" fill="#F9F9F9"/>
<path d="M443.33 79.2104V37.4258H470.196V44.5913H451.213V54.5626H468.523V61.7282H451.213V72.0556H470.557V79.2211H443.336L443.33 79.2104Z" fill="#F9F9F9"/>
<path d="M486.07 79.2103V44.5858H473.892V37.4203H506.126V44.5858H493.948V79.2103H486.07Z" fill="#F9F9F9"/>
<path d="M511.5 79.2104V37.4258H519.378V79.2104H511.5Z" fill="#F9F9F9"/>
<path d="M528.454 79.2104V37.4258H543.438L551.736 73.8416H552.81V37.4258H560.569V79.2104H545.585L537.287 42.7945H536.213V79.2104H528.454Z" fill="#F9F9F9"/>
<path d="M581.699 80.0465C578.834 80.0465 576.238 79.399 573.907 78.104C571.582 76.8091 569.731 74.9206 568.355 72.4331C566.984 69.9457 566.294 66.9133 566.294 63.3305V53.2998C566.294 47.9257 567.805 43.798 570.832 40.9112C573.853 38.0245 577.954 36.5839 583.128 36.5839C588.303 36.5839 592.231 37.949 595.037 40.6738C597.843 43.3987 599.246 47.0893 599.246 51.7459V51.9833H591.487V51.5085C591.487 50.0354 591.179 48.7027 590.564 47.5102C589.949 46.3178 589.021 45.3735 587.79 44.6775C586.555 43.9814 585.006 43.6307 583.134 43.6307C580.35 43.6307 578.159 44.4886 576.567 46.199C574.976 47.9095 574.182 50.2405 574.182 53.1811V63.4492C574.182 66.3521 574.976 68.6939 576.567 70.4637C578.159 72.2335 580.387 73.1184 583.253 73.1184C586.118 73.1184 588.206 72.363 589.522 70.8522C590.834 69.3414 591.492 67.4313 591.492 65.1219V64.523H581.58V57.8377H599.251V79.2102H591.967V75.2119H590.893C590.612 75.8864 590.165 76.604 589.549 77.3594C588.934 78.1148 588.006 78.7515 586.776 79.2695C585.54 79.7875 583.852 80.0465 581.704 80.0465H581.699Z" fill="#F9F9F9"/>
<path d="M205.983 138.621L223.442 94.7439H230.22L247.743 138.621H242.307L237.703 127.046H215.703L211.163 138.621H205.983ZM217.43 122.698H235.976L230.22 108.053C230.092 107.712 229.901 107.2 229.645 106.518C229.389 105.836 229.105 105.061 228.785 104.18C228.465 103.306 228.146 102.425 227.826 101.523C227.506 100.627 227.193 99.8173 226.902 99.0926H226.454C226.199 99.9026 225.865 100.862 225.467 101.97C225.062 103.079 224.657 104.18 224.252 105.267C223.847 106.355 223.491 107.285 223.2 108.053L217.444 122.698H217.43Z" fill="#F9F9F9"/>
<path d="M284.529 139.389C280.052 139.389 276.265 138.557 273.174 136.895C270.083 135.232 267.738 132.717 266.14 129.349C264.541 125.98 263.738 121.76 263.738 116.686C263.738 109.097 265.571 103.413 269.238 99.6397C272.904 95.8666 278.042 93.9764 284.65 93.9764C288.444 93.9764 291.784 94.5875 294.662 95.8026C297.54 97.0177 299.799 98.8296 301.441 101.238C303.082 103.647 303.899 106.71 303.899 110.419H298.783C298.783 107.648 298.207 105.374 297.056 103.605C295.905 101.835 294.271 100.514 292.161 99.6397C290.05 98.7657 287.52 98.3322 284.579 98.3322C281.424 98.3322 278.674 98.9504 276.329 100.187C273.984 101.423 272.172 103.356 270.893 105.978C269.614 108.6 268.975 112.025 268.975 116.246V117.589C268.975 121.724 269.614 125.071 270.893 127.629C272.172 130.187 273.984 132.063 276.329 133.257C278.674 134.45 281.445 135.047 284.643 135.047C287.584 135.047 290.121 134.614 292.253 133.74C294.385 132.866 296.026 131.544 297.177 129.775C298.328 128.006 298.904 125.739 298.904 122.961H303.892C303.892 126.712 303.046 129.803 301.362 132.233C299.678 134.664 297.383 136.468 294.484 137.641C291.585 138.813 288.259 139.403 284.508 139.403L284.529 139.389Z" fill="#F9F9F9"/>
<path d="M320.406 138.621L337.864 94.7439H344.643L362.166 138.621H356.73L352.125 127.046H330.126L325.586 138.621H320.406ZM331.853 122.698H350.399L344.643 108.053C344.515 107.712 344.323 107.2 344.068 106.518C343.812 105.836 343.528 105.061 343.208 104.18C342.888 103.306 342.568 102.425 342.249 101.523C341.929 100.627 341.616 99.8173 341.325 99.0926H340.877C340.621 99.9026 340.287 100.862 339.89 101.97C339.484 103.079 339.079 104.18 338.674 105.267C338.269 106.355 337.914 107.285 337.623 108.053L331.867 122.698H331.853Z" fill="#F9F9F9"/>
<path d="M381.294 138.621V94.7439H397.09C401.78 94.7439 405.759 95.5042 409.021 97.0177C412.282 98.5312 414.776 100.897 416.503 104.116C418.229 107.335 419.096 111.528 419.096 116.686C419.096 121.845 418.237 125.917 416.503 129.157C414.776 132.397 412.282 134.784 409.021 136.319C405.759 137.854 401.78 138.621 397.09 138.621H381.294ZM386.346 134.273H396.898C399.499 134.273 401.844 133.967 403.933 133.349C406.022 132.731 407.813 131.75 409.305 130.407C410.797 129.064 411.927 127.331 412.694 125.192C413.462 123.06 413.845 120.481 413.845 117.454V116.111C413.845 112.998 413.462 110.369 412.694 108.209C411.927 106.056 410.804 104.308 409.333 102.965C407.862 101.622 406.079 100.642 403.99 100.023C401.901 99.4052 399.534 99.0997 396.891 99.0997H386.339V134.28L386.346 134.273Z" fill="#F9F9F9"/>
<path d="M441.224 138.621V94.7439H474.805V99.0926H446.276V113.929H471.984V118.342H446.276V134.266H475.189V138.614H441.224V138.621Z" fill="#F9F9F9"/>
<path d="M497.443 138.621V94.7439H505.117L516.565 125.128C516.821 125.853 517.076 126.634 517.332 127.466C517.588 128.297 517.837 129.086 518.071 129.832C518.306 130.578 518.483 131.21 518.618 131.722H519.002C519.173 131.125 519.386 130.422 519.641 129.611C519.897 128.801 520.146 128.006 520.381 127.21C520.615 126.421 520.835 125.732 521.056 125.135L532.503 94.751H540.113V138.629H535.061V111.321C535.061 110.256 535.082 109.048 535.125 107.705C535.167 106.362 535.196 105.047 535.217 103.768C535.238 102.489 535.246 101.509 535.246 100.826H534.798C534.627 101.466 534.4 102.226 534.123 103.1C533.846 103.974 533.569 104.862 533.292 105.758C533.014 106.653 532.751 107.484 532.496 108.252L520.729 138.636H516.636L504.933 108.252C504.677 107.57 504.421 106.824 504.165 106.013C503.91 105.203 503.654 104.351 503.398 103.455C503.142 102.56 502.886 101.686 502.63 100.833H502.183C502.225 101.686 502.254 102.752 502.282 104.031C502.304 105.31 502.325 106.589 502.346 107.868C502.368 109.147 502.375 110.298 502.375 111.321V138.629H497.45L497.443 138.621Z" fill="#F9F9F9"/>
<path d="M576.821 138.621V120.267L559.363 94.7439H565.054L579.315 115.784H579.571L593.768 94.7439H599.332L581.873 120.267V138.621H576.821Z" fill="#F9F9F9"/>
<defs>
<filter id="filter0_f_34_9074" x="-129.798" y="-3.74467" width="344.685" height="344.685" filterUnits="userSpaceOnUse" color-interpolation-filters="sRGB">
<feFlood flood-opacity="0" result="BackgroundImageFix"/>
<feBlend mode="normal" in="SourceGraphic" in2="BackgroundImageFix" result="shape"/>
<feGaussianBlur stdDeviation="35.2394" result="effect1_foregroundBlur_34_9074"/>
</filter>
<filter id="filter1_f_34_9074" x="-139.235" y="-166.873" width="301.737" height="301.737" filterUnits="userSpaceOnUse" color-interpolation-filters="sRGB">
<feFlood flood-opacity="0" result="BackgroundImageFix"/>
<feBlend mode="normal" in="SourceGraphic" in2="BackgroundImageFix" result="shape"/>
<feGaussianBlur stdDeviation="35.2394" result="effect1_foregroundBlur_34_9074"/>
</filter>
<filter id="filter2_f_34_9074" x="-20.3714" y="-134.899" width="301.737" height="301.737" filterUnits="userSpaceOnUse" color-interpolation-filters="sRGB">
<feFlood flood-opacity="0" result="BackgroundImageFix"/>
<feBlend mode="normal" in="SourceGraphic" in2="BackgroundImageFix" result="shape"/>
<feGaussianBlur stdDeviation="35.2394" result="effect1_foregroundBlur_34_9074"/>
</filter>
<filter id="filter3_f_34_9074" x="55.5747" y="23.2187" width="301.737" height="301.737" filterUnits="userSpaceOnUse" color-interpolation-filters="sRGB">
<feFlood flood-opacity="0" result="BackgroundImageFix"/>
<feBlend mode="normal" in="SourceGraphic" in2="BackgroundImageFix" result="shape"/>
<feGaussianBlur stdDeviation="35.2394" result="effect1_foregroundBlur_34_9074"/>
</filter>
</defs>
</svg>
